<?xml version="1.0" encoding="utf-8"?>
<!-- Generator: Adobe Illustrator 25.4.1, SVG Export Plug-In . SVG Version: 6.00 Build 0)  -->
<svg version="1.1" id="Layer_1" xmlns="http://www.w3.org/2000/svg" xmlns:xlink="http://www.w3.org/1999/xlink" x="0px" y="0px"
	 viewBox="0 0 22 21" style="enable-background:new 0 0 22 21;" xml:space="preserve">
<style type="text/css">
	.st0{fill-rule:evenodd;clip-rule:evenodd;fill:#EEEEEE;}
	.st1{fill:#EEEEEE;}
</style>
<g id="Layer_1_1_">
	<path class="st0" d="M2.1,20.5v-14H1c-0.6,0-1.1-0.4-1.1-1C-0.1,5.2,0,5,0.2,4.8l10-4c0.4-0.4,1.1-0.4,1.6,0l10,4
		c0.4,0.4,0.4,1,0,1.4c-0.2,0.2-0.5,0.3-0.8,0.3h-1.2v14 M18.7,20.5V5.6l2.2-0.1l-10-4l-10,4l2.2,0.1v14.9"/>
</g>
<g id="EEyBrM.tif">
	<g>
		<path class="st1" d="M4.2,14.1c0-0.1,0.1-0.1,0.2-0.2c1-0.5,2.1-1,3.1-1.5c0,0,0-0.1,0-0.1c0-1.3,0-2.7,0-4c0-0.1,0.1-0.2,0.2-0.3
			c0.7-0.3,1.4-0.7,2.2-1c0.3-0.1,0.6-0.3,0.8-0.4c0.1,0,0.2,0,0.3,0c0.8,0.4,1.6,0.7,2.4,1.1c0.3,0.1,0.6,0.3,0.9,0.4
			c0.1,0,0.1,0.1,0.1,0.2c0,1.3,0,2.7,0,4c0,0.1,0,0.1,0.1,0.1c1,0.5,1.9,1,2.9,1.5c0.1,0,0.1,0.1,0.1,0.2c0,1.4,0,2.9,0,4.3
			c0,0.1-0.1,0.1-0.1,0.2c-1,0.6-2.1,1.3-3.1,1.9c0,0-0.1,0-0.1,0c-0.3-0.2-0.5-0.3-0.8-0.5c-0.8-0.5-1.6-0.9-2.4-1.4
			c0,0-0.1,0-0.1,0c-0.1,0-0.1,0.1-0.2,0.1c-0.9,0.6-1.9,1.1-2.8,1.7c0,0-0.1,0-0.1,0c0,0-0.1-0.1-0.1-0.1c-1.1-0.6-2.1-1.2-3.2-1.8
			c-0.1,0-0.1-0.1-0.2-0.2C4.2,17,4.2,15.5,4.2,14.1z M14,8.6C14,8.6,14,8.6,14,8.6c-1,0.5-1.9,0.9-2.9,1.3c-0.1,0-0.1,0-0.1,0.1
			c0,1.2,0,2.4,0,3.7c0,0,0,0.1,0,0.1c0,0,0,0,0.1,0c0.9-0.4,1.9-0.9,2.8-1.3c0,0,0.1-0.1,0.1-0.1C14,11.1,14,9.9,14,8.6
			C14,8.6,14,8.6,14,8.6z M6.3,15.4C6.3,15.4,6.3,15.5,6.3,15.4c0,0.3,0,0.6,0,0.8c0,0,0,0.1,0,0.1c0,0.1-0.1,0.1-0.2,0.1
			c-0.1,0-0.2-0.1-0.2-0.2c0-0.3,0-0.7,0-1c0-0.1,0-0.1-0.1-0.1c-0.4-0.2-0.8-0.4-1.1-0.6c0,0,0,0-0.1,0c0,0,0,0,0,0
			c0,1.2,0,2.5,0,3.7c0,0,0,0.1,0.1,0.1c0.9,0.5,1.9,1.1,2.8,1.6c0,0,0,0,0.1,0c0,0,0,0,0,0c0-1.2,0-2.5,0-3.7c0,0,0-0.1-0.1-0.1
			c-0.2-0.1-0.4-0.2-0.6-0.3C6.7,15.6,6.5,15.5,6.3,15.4z M14,19.9C14,19.9,14,19.9,14,19.9c0-1.3,0-2.5,0-3.8c0,0,0-0.1-0.1-0.1
			c-0.4-0.2-0.8-0.4-1.1-0.6c0,0,0,0-0.1,0c0,0,0,0.1,0,0.1c0,0.2,0,0.5,0,0.7c0,0,0,0.1,0,0.1c0,0.1-0.1,0.1-0.2,0.1
			c-0.1,0-0.2-0.1-0.2-0.2c0-0.3,0-0.7,0-1c0-0.1,0-0.1-0.1-0.1c-0.3-0.2-0.7-0.4-1-0.6c-0.1,0-0.1-0.1-0.2-0.1c0,0,0,0.1,0,0.1
			c0,1.2,0,2.4,0,3.6c0,0.1,0,0.1,0.1,0.1c0.8,0.5,1.6,0.9,2.4,1.4C13.7,19.7,13.8,19.8,14,19.9z M17.1,14.5
			C17.1,14.5,17.1,14.5,17.1,14.5c-0.9,0.5-1.8,1.1-2.7,1.6c0,0,0,0.1,0,0.1c0,1.2,0,2.4,0,3.7c0,0,0,0,0,0.1c0,0,0,0,0.1,0
			c0.9-0.5,1.7-1,2.6-1.6c0.1,0,0.1-0.1,0.1-0.1C17.1,17,17.1,15.8,17.1,14.5C17.1,14.5,17.1,14.5,17.1,14.5z M10.7,14.5
			C10.6,14.5,10.6,14.5,10.7,14.5C9.7,15,8.9,15.5,8,16.1c0,0-0.1,0.1-0.1,0.1c0,1.2,0,2.4,0,3.7c0,0,0,0,0,0.1c0,0,0,0,0.1,0
			c0.9-0.5,1.7-1,2.6-1.6c0.1,0,0.1-0.1,0.1-0.1C10.7,17,10.7,15.8,10.7,14.5C10.7,14.5,10.7,14.5,10.7,14.5z M9.5,9.4
			C9.5,9.4,9.5,9.4,9.5,9.4c0,0.3,0,0.5,0,0.7c0,0.1-0.1,0.2-0.2,0.2c-0.1,0-0.2,0-0.2-0.1c0,0,0-0.1,0-0.1c0-0.3,0-0.5,0-0.8
			c0,0,0-0.1-0.1-0.1C8.7,9,8.4,8.8,8,8.6c0,0,0,0-0.1,0c0,0,0,0,0,0.1c0,1.2,0,2.4,0,3.7c0,0,0,0.1,0.1,0.1
			c0.9,0.4,1.7,0.9,2.6,1.3c0,0,0,0,0.1,0c0,0,0,0,0-0.1c0-1.2,0-2.5,0-3.7c0,0,0-0.1-0.1-0.1C10.3,9.8,10,9.6,9.7,9.5
			C9.6,9.4,9.6,9.4,9.5,9.4z M16.9,14.1C16.9,14.1,16.9,14.1,16.9,14.1c-0.4-0.2-0.7-0.4-1.1-0.6c0,0-0.1,0-0.1,0
			c-0.9,0.5-1.8,1-2.7,1.4c0,0,0,0-0.1,0c0,0,0,0,0.1,0c0.4,0.2,0.7,0.4,1.1,0.6c0,0,0.1,0,0.1,0c0.8-0.5,1.6-1,2.4-1.4
			C16.8,14.2,16.8,14.2,16.9,14.1z M6.5,15c0.4,0.2,0.8,0.5,1.2,0.7c0,0,0.1,0,0.1,0c0.8-0.5,1.6-0.9,2.3-1.4
			c0.1-0.1,0.2-0.1,0.3-0.2c-0.4-0.2-0.7-0.4-1.1-0.6c0,0-0.1,0-0.1,0c-0.7,0.4-1.4,0.8-2.2,1.2C6.9,14.8,6.7,14.9,6.5,15z
			 M8.9,13.3C8.8,13.3,8.8,13.3,8.9,13.3c-0.4-0.2-0.7-0.4-1-0.5c0,0-0.1,0-0.1,0c-0.7,0.3-1.5,0.7-2.2,1c-0.2,0.1-0.4,0.2-0.7,0.3
			c0,0,0.1,0,0.1,0c0.4,0.2,0.7,0.4,1.1,0.6c0.1,0,0.1,0,0.1,0c0.7-0.4,1.4-0.8,2.1-1.1C8.5,13.5,8.7,13.4,8.9,13.3z M11.3,14.1
			C11.3,14.1,11.3,14.2,11.3,14.1c0.4,0.2,0.8,0.4,1.2,0.7c0,0,0.1,0,0.1,0c0.9-0.5,1.8-1,2.7-1.4c0,0,0,0,0.1,0c0,0,0,0,0,0
			c-0.3-0.2-0.7-0.4-1-0.5c0,0-0.1,0-0.1,0c-0.4,0.2-0.8,0.4-1.1,0.5C12.5,13.6,11.9,13.9,11.3,14.1z M13.7,8.3
			C13.7,8.3,13.7,8.2,13.7,8.3c-0.5-0.2-0.8-0.4-1.2-0.6c0,0-0.1,0-0.1,0C11.5,8.2,10.7,8.6,9.8,9c0,0,0,0-0.1,0
			c0.4,0.2,0.7,0.4,1.1,0.5c0,0,0.1,0,0.1,0c0.6-0.3,1.2-0.6,1.8-0.8C13.1,8.6,13.4,8.4,13.7,8.3z M8.2,8.3C8.2,8.3,8.3,8.3,8.2,8.3
			c0.4,0.2,0.7,0.4,1,0.5c0,0,0.1,0,0.1,0c0.7-0.4,1.5-0.8,2.2-1.1c0.1-0.1,0.2-0.1,0.4-0.2c0,0,0,0,0,0c-0.3-0.1-0.7-0.3-1-0.4
			c0,0-0.1,0-0.1,0C10,7.4,9.3,7.8,8.5,8.1C8.4,8.2,8.3,8.2,8.2,8.3z"/>
	</g>
</g>
</svg>
