<?xml version="1.0" encoding="utf-8"?>
<!-- Generator: Adobe Illustrator 25.4.1, SVG Export Plug-In . SVG Version: 6.00 Build 0)  -->
<svg version="1.1" id="Layer_1" xmlns="http://www.w3.org/2000/svg" xmlns:xlink="http://www.w3.org/1999/xlink" x="0px" y="0px"
	 viewBox="0 0 22 21" style="enable-background:new 0 0 22 21;" xml:space="preserve">
<style type="text/css">
	.st0{fill:#EEEEEE;}
</style>
<g id="EEyBrM.tif">
	<g>
		<path class="st0" d="M1,11.4c0-0.1,0.1-0.2,0.3-0.3c1.6-0.7,3.1-1.5,4.7-2.2C6,8.9,6,8.8,6,8.7c0-2,0-3.9,0-5.9
			c0-0.2,0.1-0.3,0.3-0.4c1.1-0.5,2.1-1,3.2-1.5c0.4-0.2,0.8-0.4,1.2-0.6c0.1-0.1,0.3-0.1,0.4,0c1.2,0.5,2.4,1.1,3.5,1.6
			C15.1,2,15.5,2.2,16,2.4c0.1,0.1,0.2,0.2,0.2,0.3c0,2,0,4,0,6c0,0.1,0,0.1,0.1,0.2c1.4,0.7,2.9,1.5,4.3,2.2
			c0.1,0.1,0.2,0.1,0.2,0.2c0,2.1,0,4.3,0,6.4c0,0.1-0.1,0.2-0.2,0.3c-1.6,0.9-3.1,1.9-4.7,2.8c-0.1,0-0.1,0-0.2,0
			c-0.4-0.2-0.8-0.5-1.2-0.7c-1.2-0.7-2.4-1.4-3.6-2c-0.1,0-0.1,0-0.2,0c-0.1,0.1-0.2,0.1-0.3,0.2c-1.4,0.8-2.8,1.7-4.2,2.5
			c-0.1,0-0.1,0-0.2,0c-0.1,0-0.1-0.1-0.2-0.1c-1.6-0.9-3.1-1.8-4.7-2.7C1.1,18,1,17.9,1,17.8C1,15.6,1,13.5,1,11.4z M15.6,3.2
			c0,0-0.1,0-0.1,0c-1.4,0.6-2.8,1.3-4.2,1.9c-0.1,0-0.1,0.1-0.1,0.2c0,1.8,0,3.6,0,5.4c0,0,0,0.1,0,0.1c0,0,0.1,0,0.1,0
			c1.4-0.7,2.8-1.3,4.2-2c0.1,0,0.1-0.1,0.1-0.2c0-1.8,0-3.6,0-5.4C15.6,3.3,15.6,3.3,15.6,3.2z M4.1,13.3c0,0.1,0,0.1,0,0.1
			c0,0.4,0,0.7,0,1.1c0,0.1,0,0.1,0,0.2c0,0.1-0.2,0.2-0.3,0.2c-0.2,0-0.3-0.1-0.3-0.3c0-0.5,0-1,0-1.5c0-0.1,0-0.1-0.1-0.2
			c-0.6-0.3-1.1-0.6-1.7-0.9c0,0-0.1,0-0.1,0c0,0,0,0,0,0.1c0,1.8,0,3.6,0,5.5c0,0.1,0,0.1,0.1,0.1c1.4,0.8,2.8,1.6,4.2,2.4
			c0,0,0.1,0,0.1,0c0,0,0,0,0-0.1c0-1.8,0-3.7,0-5.5c0-0.1,0-0.1-0.1-0.1C5.6,14.1,5.3,14,5,13.8C4.7,13.6,4.4,13.5,4.1,13.3z
			 M15.5,20c0,0,0-0.1,0-0.1c0-1.8,0-3.6,0-5.5c0-0.1,0-0.1-0.1-0.1c-0.6-0.3-1.1-0.6-1.7-0.9c0,0,0,0-0.1,0c0,0,0,0.1,0,0.1
			c0,0.4,0,0.7,0,1.1c0,0.1,0,0.1,0,0.2c0,0.1-0.2,0.2-0.3,0.2c-0.2,0-0.3-0.1-0.3-0.3c0-0.5,0-1,0-1.5c0-0.1,0-0.1-0.1-0.2
			c-0.5-0.3-1-0.6-1.5-0.8c-0.1,0-0.2-0.1-0.3-0.2c0,0.1,0,0.1,0,0.1c0,1.8,0,3.6,0,5.4c0,0.1,0,0.1,0.1,0.2
			c1.2,0.7,2.4,1.4,3.6,2.1C15.1,19.8,15.3,19.9,15.5,20z M20.2,12C20.2,12,20.1,12,20.2,12c-1.4,0.8-2.7,1.6-4,2.3
			c-0.1,0-0.1,0.1-0.1,0.1c0,1.8,0,3.6,0,5.4c0,0,0,0.1,0,0.1c0,0,0.1,0,0.1-0.1c1.3-0.8,2.6-1.5,3.8-2.3c0.1,0,0.1-0.1,0.1-0.2
			c0-1.8,0-3.6,0-5.4C20.2,12.1,20.2,12,20.2,12z M10.6,12c0,0-0.1,0-0.1,0.1c-1.3,0.8-2.6,1.5-3.8,2.3c-0.1,0-0.1,0.1-0.1,0.2
			c0,1.8,0,3.6,0,5.4c0,0,0,0.1,0,0.1c0,0,0.1,0,0.1,0c1.3-0.8,2.6-1.5,3.8-2.3c0.1,0,0.1-0.1,0.1-0.2c0-1.8,0-3.6,0-5.3
			C10.6,12.1,10.6,12,10.6,12z M8.9,4.4c0,0.1,0,0.1,0,0.1c0,0.3,0,0.6,0,1c0,0.1-0.1,0.3-0.3,0.3c-0.1,0-0.3-0.1-0.3-0.2
			c0-0.1,0-0.1,0-0.2c0-0.4,0-0.8,0-1.2c0-0.1,0-0.1-0.1-0.1c-0.5-0.3-1-0.5-1.5-0.8c0,0,0,0-0.1,0c0,0,0,0.1,0,0.1
			c0,1.8,0,3.6,0,5.4c0,0.1,0,0.1,0.1,0.1c1.3,0.7,2.5,1.3,3.8,2c0,0,0.1,0,0.1,0c0,0,0-0.1,0-0.1c0-1.8,0-3.7,0-5.5
			c0-0.1,0-0.1-0.1-0.1C10.1,5,9.6,4.7,9.1,4.5C9,4.5,9,4.4,8.9,4.4z M19.9,11.4c0,0-0.1,0-0.1-0.1c-0.5-0.3-1-0.5-1.5-0.8
			c-0.1,0-0.1,0-0.2,0c-1.3,0.7-2.6,1.4-4,2.1c0,0-0.1,0-0.1,0.1c0,0,0.1,0,0.1,0.1c0.6,0.3,1.1,0.6,1.7,0.9c0.1,0,0.1,0,0.2,0
			c1.2-0.7,2.4-1.4,3.6-2.1C19.7,11.6,19.8,11.5,19.9,11.4z M4.4,12.8c0.6,0.3,1.2,0.7,1.8,1c0,0,0.1,0,0.1,0
			c1.2-0.7,2.3-1.4,3.5-2.1c0.1-0.1,0.3-0.2,0.5-0.3c-0.6-0.3-1.1-0.6-1.6-0.8c0,0-0.1,0-0.1,0c-1.1,0.6-2.1,1.1-3.2,1.7
			C5,12.5,4.7,12.6,4.4,12.8z M7.9,10.2c0,0-0.1,0-0.1-0.1c-0.5-0.2-1-0.5-1.4-0.7c-0.1,0-0.1,0-0.2,0C5.1,9.9,4,10.5,2.9,11
			c-0.3,0.2-0.6,0.3-1,0.5c0,0,0.1,0.1,0.1,0.1c0.5,0.3,1.1,0.6,1.6,0.9c0.1,0,0.1,0,0.2,0c1.1-0.6,2.1-1.1,3.2-1.7
			C7.3,10.5,7.6,10.4,7.9,10.2z M11.6,11.4C11.6,11.5,11.6,11.5,11.6,11.4c0.6,0.3,1.2,0.7,1.7,1c0,0,0.1,0,0.2,0
			c1.3-0.7,2.6-1.4,4-2.1c0,0,0.1,0,0.1-0.1c0,0,0,0,0,0c-0.5-0.3-1-0.5-1.5-0.8c0,0-0.1,0-0.1,0c-0.6,0.3-1.1,0.5-1.7,0.8
			C13.3,10.6,12.4,11,11.6,11.4z M15.2,2.7c-0.1,0-0.1,0-0.1-0.1c-0.6-0.3-1.1-0.5-1.7-0.8c-0.1,0-0.1,0-0.2,0
			c-1.3,0.6-2.5,1.3-3.8,1.9c0,0,0,0-0.1,0.1c0.5,0.3,1.1,0.5,1.6,0.8c0,0,0.1,0,0.2,0c0.9-0.4,1.8-0.8,2.7-1.3
			C14.2,3.2,14.7,3,15.2,2.7z M7,2.7C7,2.8,7,2.8,7,2.7C7.5,3,8,3.3,8.5,3.5c0.1,0,0.1,0,0.2,0C9.8,3,10.9,2.4,12,1.8
			c0.2-0.1,0.3-0.2,0.5-0.3c0,0,0,0,0,0c-0.5-0.2-1-0.4-1.5-0.7c-0.1,0-0.1,0-0.2,0C9.7,1.4,8.6,2,7.4,2.5C7.3,2.6,7.1,2.7,7,2.7z"
			/>
	</g>
</g>
</svg>
